<svg width="76" height="50" viewBox="0 0 76 50" fill="none" xmlns="http://www.w3.org/2000/svg">
<g clip-path="url(#clip0)">
<path d="M75.3735 24.959C75.3735 32.4673 75.3735 39.9697 75.3735 47.4664C75.3735 49.4879 74.949 49.9153 72.9536 49.9182C70.1274 49.9182 67.3012 49.9182 64.475 49.9182C62.5806 49.9182 62.1272 49.4532 62.1272 47.5357C62.1272 36.0683 62.107 24.5981 62.1561 13.1307C62.1561 11.9756 61.8414 11.6868 60.7411 11.7474C58.8278 11.8456 56.9106 11.8456 54.9973 11.7474C53.8971 11.6897 53.6718 12.0362 53.6747 13.0845C53.718 24.3151 53.7007 35.5457 53.7007 46.7762C53.7007 49.6929 53.4668 49.9211 50.475 49.9211C47.876 49.9211 45.303 49.9355 42.7184 49.9211C40.9511 49.9066 40.4082 49.3637 40.4082 47.5877C40.4082 32.5347 40.4082 17.4806 40.4082 2.42567C40.4082 0.545719 40.9251 0.0114746 42.7791 0.0114746C52.8844 0.0114746 62.9917 0.0114746 73.1008 0.0114746C74.9144 0.0114746 75.3764 0.482183 75.3764 2.3217C75.3783 9.86459 75.3774 17.4104 75.3735 24.959Z" fill="#000001"/>
<path d="M35.9036 25.1066V47.1924C35.9036 49.5026 35.4791 49.9184 33.1112 49.9184C30.3793 49.9184 27.6504 49.9329 24.9185 49.9184C23.1339 49.9184 22.591 49.3726 22.5881 47.6082C22.5881 42.5892 22.5881 37.5703 22.5621 32.5513C22.5621 32.1037 22.9924 31.2114 21.9643 31.3182C21.1442 31.3991 20.0757 30.706 19.6021 32.147C17.8377 37.5298 15.9548 42.878 14.1933 48.2608C13.7948 49.4824 13.0902 49.9386 11.8831 49.9329C8.62564 49.9127 5.36532 49.9329 2.1079 49.9184C0.144202 49.9011 -0.442011 48.9626 0.329028 47.1202C2.77594 41.2811 5.22672 35.4429 7.68133 29.6058C7.89503 29.0917 8.38305 28.6152 7.57736 28.0319C2.9569 24.6821 1.70073 19.8451 1.94042 14.5113C2.1801 9.11694 4.18999 4.60044 9.11077 1.75597C11.3892 0.436255 13.9045 0.107048 16.44 0.0695072C22.1867 -0.0200141 27.9391 0.00597523 33.6858 0.0146386C35.3839 0.0146386 35.8979 0.615296 35.8979 2.44904C35.9017 9.99963 35.9036 17.5522 35.9036 25.1066Z" fill="#000001"/>
<path d="M73.881 47.9112C73.9272 48.6331 73.3814 48.4743 72.9916 48.4887C70.2164 48.4887 67.4412 48.4483 64.6661 48.5147C63.3926 48.5465 63.6149 47.7408 63.6149 47.0015C63.6149 35.976 63.6149 24.9494 63.6149 13.922C63.6149 10.3498 63.6149 10.3498 60.011 10.3527C57.4755 10.3527 54.94 10.3527 52.4046 10.3527H52.1966C50.8798 9.7751 49.6669 9.00696 48.353 8.43807C47.761 8.17817 47.4867 7.81719 48.018 7.24252C48.8352 6.66496 49.7882 6.43683 50.7527 6.24335C51.4689 6.21158 52.1966 6.24335 52.8839 5.98922C56.664 5.83906 60.4441 5.93435 64.2242 5.93435C64.4185 5.93065 64.6125 5.95101 64.8018 5.99499C68.2671 6.86133 68.7985 6.91332 68.8447 11.0371C68.9602 21.0173 68.914 30.9974 68.8447 40.9805C68.8447 42.6525 69.2836 43.9231 70.5514 44.9974C71.6747 45.9475 72.5526 47.1863 73.881 47.9112Z" fill="#044F89"/>
<path d="M52.4021 10.3528L52.3415 46.3462C52.3415 48.4831 52.3415 48.4889 50.268 48.4831C47.5391 48.4831 44.8072 48.4542 42.0783 48.4398C41.7548 48.125 41.8906 47.7207 41.8906 47.3569C41.8906 33.0065 41.8906 18.6571 41.8906 4.30869C41.8906 3.63872 41.827 2.95143 42.5114 2.52693C42.7367 2.42874 43.0717 2.37099 43.1641 2.56158C44.0911 4.49062 45.8786 5.6284 47.2878 7.11272C47.401 7.19536 47.4925 7.30422 47.5543 7.42997C47.6162 7.55571 47.6466 7.69458 47.643 7.83467C46.9702 10.1449 47.0193 12.536 47.0222 14.9184C47.0395 23.5991 47.0568 32.2769 47.0048 40.9576C47.0048 42.4014 47.386 43.5392 48.4834 44.4835C49.24 45.1391 49.8926 45.9274 50.6319 46.5858C50.8976 46.8255 51.1892 47.3973 51.6368 46.7504C51.761 43.0194 51.6744 39.2942 51.683 35.5689C51.7033 27.6882 51.683 19.8074 51.683 11.9267C51.6715 11.6676 51.6773 11.4081 51.7004 11.1498C51.7205 10.9006 51.7933 10.6584 51.9141 10.4395C51.9538 10.3689 52.0184 10.3155 52.0952 10.2899C52.1721 10.2643 52.2558 10.2682 52.3299 10.3008L52.4021 10.3528Z" fill="#044F89"/>
<path d="M47.4809 7.46476C45.6183 6.52623 44.5151 4.7589 43.0453 3.39587C42.7854 3.15618 43.0655 2.87029 43.1579 2.61328C43.6315 2.07327 44.2812 2.1599 44.8906 2.1599C53.8215 2.1599 62.7534 2.1599 71.6863 2.1599C72.2985 2.1599 72.9512 2.07326 73.3901 2.66526C73.2486 3.28036 72.7201 3.17928 72.2899 3.26014C63.1587 3.28324 54.0246 3.26015 44.5296 3.28325C45.3776 4.46199 46.4 5.50485 47.5618 6.37606C47.9487 6.66484 48.3992 6.40783 48.7977 6.26344C50.8192 5.52417 52.9071 5.37401 55.0065 5.35957C58.3043 5.33646 61.6051 5.19785 64.8971 5.62236C66.0381 5.75782 67.1353 6.1423 68.1112 6.74859C69.148 7.86328 69.1537 9.26674 69.1566 10.6442C69.1566 20.3847 69.3241 30.1281 69.0786 39.8599C68.992 43.204 70.8489 44.8298 72.9772 46.652C73.4277 46.0744 73.2342 45.4969 73.2342 44.9424C73.2476 31.7164 73.2534 18.4913 73.2515 5.26716C73.2515 4.51633 73.0955 3.73375 73.5085 3.02335C73.5198 2.9805 73.5422 2.9414 73.5735 2.91001C73.6048 2.87862 73.6438 2.85606 73.6866 2.84463C73.7294 2.83319 73.7745 2.83328 73.8173 2.84489C73.86 2.8565 73.899 2.87921 73.9301 2.91072C73.9301 17.5787 73.9301 32.2458 73.9301 46.9119C73.9301 47.244 73.8926 47.579 73.8724 47.9111C73.7575 47.9989 73.617 48.0465 73.4724 48.0465C73.3278 48.0465 73.1873 47.9989 73.0724 47.9111C72.801 47.7182 72.5416 47.5089 72.2956 47.2844C68.4607 43.6429 68.4607 43.64 68.4607 38.3121C68.4607 29.6169 68.4607 20.9218 68.4607 12.2267C68.4455 10.9445 68.3491 9.66459 68.1719 8.39462C68.0824 7.65824 67.6347 7.28572 67.0341 7.06336C65.9136 6.65329 64.7816 6.30676 63.5687 6.31542C59.9301 6.33564 56.2915 6.31542 52.6529 6.31542C52.0176 6.67928 51.2668 6.21435 50.6315 6.6042L48.0469 7.47054C47.9699 7.5425 47.8681 7.58205 47.7627 7.58097C47.6574 7.57989 47.5564 7.53827 47.4809 7.46476Z" fill="#0760A3"/>
<path d="M73.3671 2.82144C73.0783 2.45469 72.6769 2.54709 72.3073 2.54709C62.7815 2.54709 53.2517 2.54709 43.7182 2.54709C43.5247 2.55699 43.332 2.57724 43.1407 2.60774C42.2743 2.66839 42.0375 3.23728 42.0317 3.98521C42.026 4.73315 42.0317 5.42911 42.0317 6.13662C42.0317 20.2348 42.0414 34.3339 42.0606 48.434C41.5119 48.1163 41.7372 47.5676 41.7372 47.1403C41.7256 32.7013 41.7256 18.2624 41.7372 3.8235C41.7372 2.10815 42.1299 1.72408 43.8539 1.72119C53.3875 1.72119 62.9172 1.72119 72.443 1.72119C73.2718 1.72119 74.0428 1.72119 73.9129 2.8994L73.7714 2.8792L73.6357 2.91673C73.5874 2.93953 73.532 2.94231 73.4817 2.92446C73.4314 2.9066 73.3902 2.86957 73.3671 2.82144Z" fill="#000551"/>
<path d="M12.6481 48.1797C12.4662 48.584 12.0937 48.4685 11.7818 48.4685C8.73421 48.4685 5.68664 48.455 2.63907 48.4281C2.18858 47.6686 2.70838 47.0564 2.97117 46.4268C4.67208 42.3406 6.5116 38.3093 8.06234 34.1624C8.52438 32.9149 9.0355 31.6847 9.54375 30.4545C9.85892 29.8088 9.93761 29.073 9.76612 28.3753C9.91917 27.7227 9.35605 27.6014 8.9893 27.3357C7.25663 26.0997 5.70011 24.7367 4.9233 22.6748C3.17041 17.9129 3.14732 13.2375 5.61927 8.6835C7.88329 8.51312 9.41669 10.1274 8.894 12.1488C8.76405 12.6571 8.79295 13.1798 8.65722 13.6822C8.0479 17.6241 8.72362 21.1616 11.981 23.8328C12.9369 24.6154 13.835 25.4644 14.788 26.2528C15.7236 26.7437 16.6939 26.3423 17.5862 26.2152C19.7376 25.912 21.8804 26.0535 24.0231 25.99C24.7396 26.0038 25.456 25.9613 26.1659 25.8629C27.9794 25.5279 28.9179 26.1864 29.1316 28.0085C29.3719 29.7095 29.4935 31.4252 29.4955 33.143C29.4348 36.1001 29.4955 39.0601 29.4695 42.0172C29.4403 42.4194 29.5031 42.823 29.6532 43.1972C29.8033 43.5715 30.0368 43.9067 30.3358 44.1772C31.6411 45.3641 32.7327 46.7763 34.217 47.7725C34.2644 47.8148 34.3024 47.8666 34.3284 47.9246C34.3544 47.9826 34.3679 48.0454 34.3679 48.109C34.3679 48.1725 34.3544 48.2353 34.3284 48.2933C34.3024 48.3513 34.2644 48.4031 34.217 48.4454C31.2541 48.4454 28.2941 48.4454 25.3313 48.5031C24.3696 48.5234 24.13 48.1682 24.1357 47.2556C24.1762 42.4879 24.1559 37.7259 24.1531 32.9553C24.1531 29.851 24.1531 29.8307 21.092 29.8625C20.3065 29.8625 19.4604 29.5911 18.7414 30.1744C17.875 29.6777 17.0491 29.1117 16.1424 28.6496C15.1952 28.1616 14.6985 28.3435 14.2768 29.3311C12.9023 32.5366 11.7529 35.8229 10.4823 39.0659C8.92577 43.0308 8.90267 43.0192 11.4584 46.3806C11.9276 46.929 12.3272 47.5332 12.6481 48.1797Z" fill="#044F89"/>
<path d="M18.4791 30.7461C17.2142 35.3492 15.4787 39.7964 14.003 44.3186C13.6392 45.4362 13.4659 46.652 12.6544 47.5934C11.661 47.4086 11.5715 46.369 10.9651 45.8203C8.94363 43.9865 9.02736 42.0344 10.1276 39.626C11.6812 36.2155 12.7988 32.6116 14.2571 29.1462C14.6499 28.2135 15.1004 27.9651 15.9898 28.4618C16.5674 28.7881 17.2113 29.0134 17.7658 29.3801C18.2163 29.6949 18.7736 30.0126 18.4791 30.7461Z" fill="#0A78C7"/>
<path d="M34.2349 48.4483V47.914C34.0478 47.6959 33.9284 47.428 33.8912 47.143C33.7988 39.1294 33.8739 31.1158 33.8508 23.1022C33.8306 16.5672 33.8883 10.0321 33.819 3.49992C33.6718 2.75199 33.1 2.70289 32.4993 2.70289C27.1887 2.70289 21.8752 2.58449 16.5732 2.76642C14.7221 2.82996 12.7238 2.75199 11.0431 3.88978C10.909 4.06127 10.7591 4.21983 10.5955 4.36337C10.119 4.69546 9.57609 4.92649 9.1025 5.27302C8.9958 5.33314 8.88479 5.38526 8.77039 5.42896C8.4231 5.53413 8.11207 5.73416 7.8723 6.00652C7.17345 6.71403 6.41108 7.36378 5.89128 8.22723C5.05094 9.38234 4.79104 10.8118 4.15861 12.0651C4.10452 12.1059 4.03863 12.1279 3.9709 12.1279C3.90317 12.1279 3.83729 12.1059 3.7832 12.0651C4.18461 7.4071 8.47007 2.95991 13.0905 2.27262C15.3776 1.93186 17.6648 2.00116 19.9548 1.98384C24.0699 1.96362 28.1879 1.98384 32.303 1.98384C34.5497 1.98384 34.5525 1.98384 34.5525 4.29406C34.5525 12.3625 34.5525 20.4329 34.5525 28.5052C34.5525 34.6187 34.5525 40.7321 34.5381 46.8456C34.5468 47.3827 34.8095 48.0065 34.2349 48.4483Z" fill="#000168"/>
<path d="M18.4793 30.7461C17.9942 29.152 16.4059 29.0943 15.2363 28.4763C14.8754 28.2857 14.6588 28.7391 14.549 29.0538C12.8395 33.4818 11.1338 37.9165 9.4319 42.3579C9.28462 42.7362 9.21532 43.0625 9.48966 43.4235C10.5524 44.8125 11.6006 46.2159 12.6662 47.6136C12.6662 47.8042 12.6662 47.9977 12.6662 48.1912C11.0866 46.9119 10.2665 45.0146 8.94962 43.5332C8.64641 43.1895 8.71283 42.7737 8.89476 42.329C10.6881 37.928 12.1811 33.4115 14.0639 29.0452C14.5981 27.8063 15.1844 27.6619 16.2211 28.3001C17.1278 28.8604 18.3003 29.0538 18.7768 30.1859C18.7873 30.2981 18.7647 30.4109 18.7118 30.5105C18.659 30.61 18.5781 30.6919 18.4793 30.7461Z" fill="#055C9C"/>
<path d="M8.3834 34.1423C7.75675 36.5247 6.58142 38.6905 5.67755 40.9661C4.68415 43.4641 3.65609 45.9476 2.63959 48.4397L1.82812 48.4484C2.06204 46.6811 3.00923 45.1707 3.69075 43.5796C5.0509 40.403 6.25799 37.1629 7.77408 34.0499C7.87244 33.9992 7.98429 33.9808 8.0937 33.9974C8.20311 34.014 8.30449 34.0647 8.3834 34.1423Z" fill="#004181"/>
<path d="M7.84052 34.1509C5.83447 38.9157 3.83035 43.6815 1.82815 48.4483C1.20728 47.8707 1.82815 47.3913 2.01297 46.9611C4.49935 40.9545 7.02905 34.9681 9.55008 28.9759C9.95437 28.924 10.0872 29.207 9.98036 29.4813C9.33638 31.0754 8.96387 32.782 7.84052 34.1509Z" fill="#000D55"/>
<path d="M4.06913 12.0623C4.35791 10.6184 4.71022 9.1745 5.78448 8.05981C5.82478 8.09358 5.85754 8.13543 5.88064 8.18266C5.90374 8.22989 5.91667 8.28144 5.91857 8.33398C5.92048 8.38652 5.91131 8.43889 5.89169 8.48767C5.87208 8.53645 5.84245 8.58056 5.80469 8.61715C5.51592 10.2459 4.58315 11.6638 4.3348 13.3271C3.89586 16.2698 3.90452 19.1518 4.8546 21.9905C4.90423 22.222 4.92747 22.4584 4.92391 22.6951C4.24634 21.6686 3.8482 20.4831 3.76879 19.2557C3.56087 16.8358 3.24323 14.4187 4.06913 12.0623Z" fill="#004281"/>
<path d="M7.84082 34.1509C8.41838 32.7618 8.99593 31.3699 9.60814 29.9838C9.76119 29.6257 9.94889 29.2878 9.5446 28.9731C9.5446 28.7449 9.52728 28.5197 9.76697 28.3955C10.4167 28.8142 10.3647 29.3802 10.1077 29.9953L8.37505 34.1509H7.84082Z" fill="#003476"/>
<path d="M4.06866 12.0623C3.66148 14.4505 3.81453 16.8589 3.77988 19.2615C3.13587 16.9069 3.13587 14.4226 3.77988 12.068L4.06866 12.0623Z" fill="#00246C"/>
<path d="M47.4813 7.46484H48.0588C47.8249 7.88935 48.0877 7.9471 48.4285 8.1146C49.7655 8.77301 51.2065 9.25238 52.3241 10.3006C52.2289 10.3205 52.1324 10.3331 52.0353 10.3382C51.9594 10.4095 51.8657 10.4589 51.764 10.4813C51.6624 10.5036 51.5565 10.4981 51.4577 10.4653C50.6607 10.0465 49.8839 9.59892 49.0638 9.21773C47.8336 8.6575 47.591 8.81633 47.5535 10.1967C47.5535 10.4855 47.5766 10.7743 47.5795 11.063C47.5929 21.1241 47.5881 31.1832 47.565 41.2404C47.565 42.4821 47.8538 43.4437 48.8096 44.2668C49.9243 45.2342 50.8311 46.4095 52.0209 47.3191C51.9429 48.1682 51.4722 47.9978 51.0766 47.6079C49.7106 46.2767 48.362 44.9252 47.0337 43.5419C46.6323 43.1174 46.5947 42.5197 46.5947 41.9277C46.5947 31.678 46.5947 21.4292 46.5947 11.1814C46.6294 9.87904 47.0799 8.67483 47.4813 7.46484Z" fill="#055A99"/>
<path d="M50.6484 6.59866C51.2549 6.05287 51.9913 6.41962 52.6699 6.30989C52.0548 6.86434 51.3184 6.49182 50.6484 6.59866Z" fill="#055A99"/>
<path d="M52.0442 10.907V11.4673C51.8276 11.9755 51.9344 12.5069 51.9344 13.0267C51.9344 23.6402 51.9344 34.2528 51.9344 44.8645C51.9344 45.1995 51.9489 45.5345 51.9344 45.8694C51.92 46.2044 52.0499 46.5914 51.6947 46.782C51.2558 47.0188 50.9901 46.6318 50.7273 46.3806C49.7628 45.4507 48.8301 44.4862 47.8742 43.5477C47.6882 43.3643 47.5439 43.143 47.4512 42.8988C47.3585 42.6546 47.3196 42.3933 47.3371 42.1326C47.3486 31.9985 47.3486 21.8643 47.3371 11.7301C47.3371 10.6876 47.8193 10.2197 48.781 10.1938C49.9245 10.1707 51.1056 10.0147 52.0442 10.907Z" fill="#1090EA"/>
<path d="M52.0439 10.907C51.8158 10.8348 51.5934 10.7482 51.3624 10.6962C48.1194 9.9685 47.4899 10.4565 47.4899 13.6937C47.4899 22.7152 47.5216 31.7366 47.4581 40.7581C47.4581 42.2568 47.7064 43.4639 48.9626 44.3591C49.9012 45.0291 50.5278 46.73 51.5616 46.3979C52.2374 46.1813 51.7725 44.31 51.7753 43.1838C51.7984 33.1603 51.7753 23.1368 51.7984 13.1133C51.7984 12.5617 51.6021 11.9582 52.0497 11.4673C52.0497 23.4034 52.0429 35.3464 52.0295 47.296C51.9457 47.3422 51.8273 47.4519 51.784 47.4288C50.0687 46.4383 48.954 44.7952 47.539 43.4784C46.8979 42.8806 47.1982 42.0345 47.1982 41.2865C47.1867 31.058 47.1867 20.8304 47.1982 10.6038C47.7411 8.29359 47.7469 8.29359 49.8896 9.47181C50.4267 9.76059 51.0245 9.93963 51.5183 10.3093L52.0439 10.3266C52.0439 10.5316 52.0439 10.7251 52.0439 10.907Z" fill="#0C7CCB"/>
<path d="M73.367 2.82129L73.6557 2.92814V47.4982C72.2118 47.0361 71.6141 45.7655 70.6149 45.0262C69.093 43.8856 68.7119 42.4041 68.7263 40.53C68.8129 30.5411 68.7696 20.5494 68.7667 10.5605C68.7667 9.27259 68.7061 7.99042 67.9004 6.89595C68.0113 6.81563 68.1447 6.77239 68.2816 6.77239C68.4185 6.77239 68.5519 6.81563 68.6627 6.89595C69.8179 8.07994 69.7284 9.61913 69.7688 11.0717C69.8554 14.0317 69.7977 16.9974 69.7977 19.9603C69.7977 26.7928 69.8958 33.6311 69.7457 40.4636C69.6908 42.9239 70.8603 44.3534 72.6334 45.6616C73.1013 45.1764 72.9222 44.622 72.9222 44.1253C72.9338 31.419 72.9338 18.706 72.9222 5.9863C72.9222 5.09975 73.0897 4.14967 72.362 3.40751C72.3062 3.33873 72.2655 3.25894 72.2426 3.17334C72.2197 3.08775 72.2151 2.99829 72.2292 2.91081L73.367 2.82129Z" fill="#0980D4"/>
<path d="M72.2125 2.88773V3.14762L72.0306 3.32667C71.3115 3.69053 70.5318 3.5779 69.7752 3.58079C62.3565 3.58079 54.9378 3.58079 47.5191 3.58079C46.9617 3.58079 46.364 3.45084 45.8413 3.75406C46.7076 5.70043 47.6346 6.13937 49.5954 5.48673C50.4541 5.18502 51.3565 5.02601 52.2666 5.01602C56.1911 5.01602 60.1156 4.98137 64.0372 5.03335C65.6775 5.05645 67.2773 5.32212 68.4844 6.6274L68.4671 6.88442H67.8895C65.6659 5.86214 63.2691 5.76973 60.904 5.75529C57.7101 5.74085 54.5133 5.63111 51.3252 5.99498C50.3784 6.11749 49.4566 6.3874 48.5933 6.7949C47.9291 7.08368 47.4786 7.08367 46.9646 6.53211C46.1272 5.61957 45.2117 4.77345 44.3454 3.8869C44.1288 3.66454 43.7303 3.46528 43.918 3.07543C44.1057 2.68558 44.5129 2.86462 44.8277 2.85885C45.6391 2.83574 46.4506 2.85885 47.265 2.85885L72.2125 2.88773Z" fill="#1090EA"/>
<path d="M34.2376 47.3482V47.9085C33.4319 48.024 33.0998 47.3309 32.5743 46.9613C29.7067 44.8792 28.6816 42.1878 28.9992 38.6098C29.2908 35.2436 29.2308 31.8563 28.8202 28.5026C28.5689 26.4262 28.0722 25.9989 25.9988 26.305C24.8125 26.4322 23.618 26.4641 22.4266 26.4003C20.1436 26.3336 17.86 26.5098 15.6143 26.9258C15.083 27.0298 14.6671 26.9258 14.4072 26.4147C14.5137 26.284 14.6533 26.1842 14.8115 26.1259C15.9666 25.9931 17.09 25.661 18.2624 25.7187C20.1164 25.6408 21.979 25.8978 23.8214 25.557C24.3189 25.4619 24.8254 25.4212 25.3317 25.4357C29.0136 25.4559 28.9848 25.4588 29.5248 29.0484C30.0157 32.3202 29.8915 35.6209 29.6894 38.8668C29.4988 41.9077 30.3131 44.2236 32.7504 46.017C33.2818 46.4068 33.6803 46.9699 34.2376 47.3482Z" fill="#055FA1"/>
<path d="M5.8044 8.59711C5.8044 8.41229 5.80439 8.22458 5.78418 8.03977C6.13071 6.99439 6.99127 6.39662 7.80563 5.74976C7.90038 5.84582 7.95684 5.97313 7.96445 6.10784C7.9224 6.37561 7.80179 6.62485 7.61792 6.824C7.30315 7.29471 6.61585 7.67012 7.16453 8.37763C7.66123 9.01872 9.09646 9.26707 9.76354 8.83968C10.0596 8.60877 10.3077 8.32235 10.4942 7.99645C10.7844 7.62108 11.1135 7.27744 11.476 6.97128C11.7648 6.75759 12.0853 6.61609 12.4492 6.81246C12.5326 6.92188 12.5818 7.05348 12.5907 7.19076C12.5012 7.83762 11.8918 8.05709 11.5309 8.49315C10.7281 9.44034 10.7916 9.88795 11.8601 10.5146C12.3163 10.7774 12.8102 10.9709 13.2607 11.2452C13.6534 11.4849 14.1674 11.6784 13.9364 12.3223C12.6975 12.5476 11.9005 11.5513 10.8667 11.2163C10.37 11.0546 9.82131 10.5348 9.54119 11.4676C9.2322 12.4956 9.42857 13.645 8.76727 14.5835C8.71051 14.6336 8.6402 14.6658 8.56519 14.6761C8.49017 14.6864 8.41379 14.6742 8.34564 14.6412C8.28056 14.504 8.25144 14.3525 8.26104 14.201C8.27064 14.0494 8.31864 13.9028 8.40051 13.7749C8.42073 13.1136 8.31388 12.4321 8.6402 11.8112C9.24086 10.6763 8.77015 10.0785 7.67857 9.66559C6.99994 9.40858 6.41949 8.96385 5.8044 8.59711Z" fill="#0769B1"/>
<path d="M8.38088 13.769V14.6354C9.10283 15.519 8.54837 16.6193 8.88335 17.5636C9.10619 18.9473 9.56944 20.2814 10.2522 21.5054C11.0508 22.5261 11.9855 23.4326 13.0302 24.1997C13.7004 24.7234 14.2926 25.3398 14.7889 26.0306C14.8088 26.0927 14.8116 26.1591 14.7969 26.2226C14.7821 26.2862 14.7504 26.3446 14.7051 26.3915H14.399C12.9927 25.1209 11.4015 24.0005 10.2146 22.5508C8.13541 20.0095 7.62428 16.986 8.38088 13.769Z" fill="#0762A6"/>
<path d="M34.2373 47.3481C32.9233 47.2211 29.3772 43.4727 29.3714 42.1674C29.3714 38.8234 29.3136 35.4764 29.3916 32.1324C29.4262 30.6423 29.1288 29.1984 29.0364 27.7256C28.9555 26.4261 28.2914 25.5829 26.7782 25.8139C26.2976 25.8519 25.8148 25.8519 25.3343 25.8139C25.311 25.7521 25.3055 25.6851 25.3182 25.6203C25.331 25.5555 25.3615 25.4955 25.4065 25.4472C25.7212 25.1382 26.2237 25.3259 26.5616 25.0227C26.4605 24.2978 25.3343 24.0812 25.6404 23.1658C25.7375 23.0958 25.8522 23.0543 25.9716 23.0462C26.0911 23.038 26.2104 23.0635 26.3161 23.1196C27.1998 23.7347 28.3376 23.6019 29.2443 24.0841C29.0508 24.9505 29.2212 25.7388 29.51 26.5821C29.9128 27.8629 30.1002 29.2018 30.0645 30.5441C30.0645 33.6485 30.1857 36.7557 30.024 39.8485C29.9143 41.948 30.4803 43.5767 32.1639 44.8242C32.5739 45.1274 32.7992 45.6761 33.3767 45.7454C33.729 45.2083 33.5587 44.6192 33.5587 44.0647C33.5702 31.2275 33.5702 18.3923 33.5587 5.559C33.5587 4.80528 33.4258 4.02847 33.7839 3.30652C33.804 3.26567 33.8325 3.22949 33.8675 3.20031C33.9024 3.17112 33.9431 3.14958 33.9869 3.13707C34.0307 3.12455 34.0767 3.12135 34.1218 3.12765C34.1669 3.13396 34.2102 3.14964 34.2488 3.17368L34.2373 47.3481Z" fill="#0B7BC9"/>
<path d="M34.2639 3.16494C34.1745 3.14807 34.0834 3.14128 33.9925 3.14473C29.7012 2.84151 25.4042 3.07542 21.1101 3.01189C18.4437 2.98716 15.7791 3.15509 13.1369 3.51436C12.4063 3.60677 11.8374 4.12946 11.1154 4.14679C11.0267 4.15273 10.938 4.13501 10.8583 4.09544C10.7787 4.05586 10.711 3.99585 10.6621 3.92154C10.4455 3.12451 11.1617 3.27468 11.5284 3.13895C13.2438 2.47765 15.0804 2.3708 16.8708 2.33903C22.1757 2.24374 27.4834 2.29861 32.7912 2.30438C33.4149 2.30438 34.1715 2.15422 34.2639 3.16494Z" fill="#00109C"/>
<path d="M10.6469 3.92148L10.9357 4.00234C11.2533 3.80597 11.6114 3.89838 11.9522 3.86084C12.4604 4.19293 12.0504 4.40085 11.8367 4.61744C11.5479 4.90622 10.9934 5.01884 11.1407 5.57329C11.2995 6.17106 11.9117 6.01513 12.3276 6.17973C12.3856 6.21502 12.4355 6.262 12.4743 6.31769C12.5131 6.37338 12.5398 6.43655 12.5528 6.50316C12.5501 6.63896 12.4965 6.76879 12.4027 6.86702L11.5566 7.18179C10.2513 7.66116 9.85565 6.8006 9.53511 5.81876C9.45136 5.0997 10.0665 4.73872 10.3552 4.20737L10.6469 3.92148Z" fill="#0E97F3"/>
<path d="M10.3589 4.20728C10.5091 4.83392 9.78135 5.1487 9.81601 5.73492C9.69685 5.84964 9.54074 5.91817 9.37563 5.92822C9.21052 5.93828 9.04722 5.8892 8.91502 5.78978C8.84446 5.68854 8.80664 5.5681 8.80664 5.44469C8.80664 5.32129 8.84446 5.20085 8.91502 5.09961C9.25578 4.56826 9.79002 4.35744 10.3589 4.20728Z" fill="#0182EE"/>
<path d="M8.92306 5.09985L8.95482 5.73805C8.83353 6.39647 8.66604 7.02889 7.95853 7.32055C7.4936 7.27435 7.23659 7.09819 7.51382 6.59861L7.8257 6.02105C8.01491 5.67307 8.30073 5.38725 8.64871 5.19804L8.92306 5.09985Z" fill="#0076DB"/>
<path d="M8.64877 5.20098C8.47303 5.55881 8.18359 5.84826 7.82576 6.024C7.82576 5.93448 7.80843 5.84496 7.79688 5.75544C7.85629 5.58099 7.97254 5.43152 8.127 5.33099C8.28146 5.23046 8.4652 5.18468 8.64877 5.20098Z" fill="#0773C4"/>
<path d="M51.5204 10.3295C50.6916 10.2429 50.0014 9.82704 49.3227 9.39387C48.4564 8.83653 47.7489 8.70081 47.5208 10.0176C47.4451 10.2348 47.3371 10.4393 47.2002 10.6241C47.1682 10.2024 47.1798 9.77852 47.2349 9.35922C47.4053 8.61706 47.8124 8.13479 48.6412 8.63149C49.6 9.19461 50.7695 9.40542 51.5204 10.3295Z" fill="#0974C0"/>
<path d="M72.2209 3.14764C73.5031 3.09855 73.3587 4.01398 73.3587 4.82545V31.9302C73.3587 36.4698 73.3587 41.0123 73.3587 45.5547C73.3587 45.9071 73.5637 46.4066 73.1248 46.5886C72.6859 46.7705 72.5068 46.2507 72.218 46.037C72.1401 45.9792 72.0881 45.8926 72.0101 45.8377C69.7779 44.2581 69.2292 42.1356 69.2782 39.4269C69.4457 29.9665 69.3505 20.4974 69.3331 11.0342C69.3331 9.60762 69.2147 8.17816 68.4668 6.8931C69.6652 5.61381 70.9214 4.38939 72.192 3.17652L72.2209 3.14764Z" fill="#1090EA"/>
<path d="M72.2002 3.16796C71.3371 4.73583 70.0448 6.02509 68.4749 6.88454C67.205 5.93756 65.6609 5.43062 64.0768 5.44064C60.2967 5.44064 56.5166 5.47818 52.7365 5.41754C51.397 5.36863 50.0657 5.64716 48.8582 6.229C48.0092 6.65351 47.4576 6.51779 46.8685 5.84782C46.34 5.23561 45.7134 4.69271 45.1561 4.11515C44.9626 3.91878 44.6622 3.72818 44.7604 3.41342C44.8586 3.09865 45.2283 3.17085 45.4997 3.15063C45.6412 3.15063 45.7885 3.15063 45.93 3.15063L72.2002 3.16796Z" fill="#1298F8"/>
<path d="M25.3522 25.5395V25.8283H23.9228C22.5424 26.1171 21.1505 25.9121 19.7615 25.9467C19.7207 25.9358 19.6827 25.9168 19.6495 25.8907C19.6164 25.8647 19.5888 25.8322 19.5686 25.7952C19.5483 25.7582 19.5358 25.7175 19.5317 25.6756C19.5277 25.6336 19.5321 25.5913 19.5449 25.5511C21.3626 24.9111 23.3327 24.8426 25.1905 25.3547C25.2396 25.4154 25.2974 25.476 25.3522 25.5395Z" fill="#0D89DF"/>
<path d="M19.5938 25.8138H23.9254C22.031 26.4376 20.0847 25.938 18.1672 26.1026C18.144 26.0702 18.1277 26.0332 18.1195 25.9942C18.1113 25.9551 18.1112 25.9148 18.1194 25.8757C18.1275 25.8366 18.1436 25.7997 18.1668 25.7671C18.1899 25.7346 18.2196 25.7073 18.2538 25.6868C18.4605 25.559 18.7032 25.5023 18.9451 25.5252C19.187 25.5482 19.4148 25.6495 19.5938 25.8138Z" fill="#0B7BC9"/>
<path d="M18.1669 25.8256C18.1669 25.918 18.1669 26.0104 18.1669 26.1143L14.7246 26.4031C14.7246 26.3069 14.7246 26.2106 14.7246 26.1143C15.1116 25.6812 15.6949 25.7707 16.1685 25.5714C16.3177 25.5286 16.4704 25.4986 16.6248 25.4819C17.1561 25.4646 17.7279 25.3606 18.1669 25.8256Z" fill="#0D89DF"/>
<path d="M13.8011 12.3509C13.6134 11.3402 12.6229 11.3604 11.9703 11.0052C10.0528 9.96271 9.94884 9.19168 11.6815 7.84886C11.9443 7.64671 12.2591 7.51677 12.4035 7.19333C13.8473 5.64259 15.811 5.52997 17.6939 5.39713C19.981 5.23542 22.2883 5.33648 24.587 5.36536C25.7133 5.36536 26.7413 5.78698 27.7376 6.26058C29.1815 6.94498 29.4183 8.34555 29.4183 9.66816C29.4183 13.9998 29.7677 18.3546 29.1728 22.6834C28.6877 24.1446 28.4393 24.2544 27.0965 23.619C26.5911 23.3822 26.1233 23.0588 25.5573 22.9664C24.9797 22.7614 24.382 22.3398 24.0095 23.2552C23.8611 23.4244 23.6734 23.5546 23.4629 23.6341C23.2524 23.7137 23.0256 23.7403 22.8024 23.7115C21.0322 23.5815 19.259 23.7114 17.4888 23.6364C16.616 23.5409 15.7979 23.1638 15.1584 22.5621C14.4278 21.6351 13.7145 20.6908 13.4257 19.5213C13.2784 18.9697 13.1196 18.4268 13.4459 17.8839C13.4939 17.823 13.5632 17.7825 13.6399 17.7707C13.7165 17.7589 13.7948 17.7767 13.8589 17.8204C14.4364 18.4384 14.552 19.2643 14.9563 19.9775C15.6147 21.1327 16.5359 21.9095 17.844 22.1463C19.3601 22.4351 20.8993 22.3253 22.4241 22.2242C23.3453 22.1636 23.764 21.5254 23.7755 20.6591C23.8131 17.5576 23.8939 14.4503 23.738 11.3517C23.6571 9.801 23.3684 9.61907 21.7541 9.61907C20.9397 9.61907 20.1254 9.59019 19.3139 9.63351C17.3098 9.74613 15.528 10.2746 14.5433 12.2498C14.4328 12.4663 14.2421 12.631 14.012 12.709C13.9691 12.7113 13.9265 12.7019 13.8887 12.6816C13.8509 12.6613 13.8193 12.6311 13.7976 12.5941C13.7758 12.5571 13.7646 12.5149 13.7653 12.472C13.7659 12.4291 13.7783 12.3872 13.8011 12.3509Z" fill="#044F8A"/>
<path d="M28.7975 22.952C29.323 18.8686 29.0256 14.7651 29.0689 10.6702C29.1122 6.95652 28.3296 6.03243 24.0644 5.78986C21.3643 5.6368 18.6325 5.56461 15.915 5.98911C14.6444 6.18837 13.6048 6.89299 12.415 7.18177C12.415 7.07781 12.415 6.97385 12.415 6.867C12.415 6.76015 12.415 6.69373 12.415 6.60421C13.8127 5.43466 15.531 5.16032 17.2434 5.08813C19.7702 4.97262 22.3057 5.05347 24.8383 5.05925C25.8663 5.05925 26.7847 5.49241 27.7463 5.76964C29.2999 6.3472 29.8457 7.52253 29.8284 9.12813C29.7909 12.9833 29.8284 16.8356 29.8111 20.6793C29.8111 21.4359 29.837 22.2156 29.2913 22.848C29.2346 22.9211 29.1539 22.9716 29.0634 22.9907C28.973 23.0097 28.8787 22.996 28.7975 22.952Z" fill="#0764A9"/>
<path d="M8.66602 14.6267C8.85083 13.4716 8.84506 12.302 9.24357 11.1902C9.40529 11.0863 9.15116 11.1498 9.32731 11.0747C10.8781 10.4221 11.7819 11.8169 12.9746 12.2703C13.7023 12.5591 13.711 13.2954 13.4106 13.9827C13.3199 14.1042 13.1851 14.1851 13.0352 14.208C11.6318 14.208 10.185 13.8528 8.87395 14.6787L8.66602 14.6267Z" fill="#0A7CCC"/>
<path d="M7.51375 6.59839C7.50612 6.67613 7.51582 6.75459 7.54214 6.82813C7.56847 6.90167 7.61077 6.96846 7.666 7.0237C7.72123 7.07893 7.78803 7.12122 7.86157 7.14755C7.93511 7.17388 8.01357 7.18358 8.09131 7.17595C8.98074 7.39831 9.6536 8.26175 10.6903 8.04228C10.4882 8.86819 10.003 9.39666 9.12514 9.4573C8.64563 9.50683 8.16133 9.43553 7.71644 9.24991C7.27155 9.06429 6.88022 8.77024 6.57811 8.39459C6.09008 7.7304 6.85822 7.04022 7.51375 6.59839Z" fill="#0773C4"/>
<path d="M10.6908 8.04554C9.3682 9.10824 8.86572 7.73943 8.0918 7.1792C8.42389 6.72871 8.29105 6.00099 8.95813 5.74976H9.82447C10.0497 6.65652 10.5897 7.19365 11.5571 7.19365C11.3665 7.56266 11.063 7.86112 10.6908 8.04554Z" fill="#0D88DD"/>
<path d="M13.2582 14.0577C13.2582 12.4492 10.9971 10.835 9.24707 11.1902C9.3337 10.396 9.72644 10.2603 10.4022 10.6126C11.5255 11.2046 12.6633 11.7677 13.7953 12.3453C13.8127 12.4406 13.8271 12.5388 13.8444 12.6341C13.9975 14.3667 14.3209 16.0994 13.5556 17.7801L13.4372 17.7368C12.4439 16.5585 12.7731 15.311 13.2582 14.0577Z" fill="#0874BF"/>
<path d="M8.66003 17.8033C8.08248 16.7925 8.52142 15.6894 8.38858 14.6267H8.67736C8.96946 15.1057 9.12254 15.6565 9.11948 16.2174C9.11642 16.7784 8.95734 17.3275 8.66003 17.8033Z" fill="#0A7CCC"/>
<path d="M8.66016 17.8031C8.66016 16.75 8.66498 15.6912 8.67461 14.6266C9.93946 13.1509 11.4786 13.7313 12.9832 14.049C13.2113 14.4244 13.1362 14.8171 13.0496 15.2041C12.4547 15.7412 11.7183 15.5131 11.0281 15.5795C10.491 15.6286 9.87303 15.4005 9.49473 16.0069C9.11643 17.2775 9.49473 18.4615 9.89614 19.6397C10.1075 20.1209 10.2588 20.6262 10.3466 21.1443C10.3534 21.2609 10.3352 21.3776 10.2934 21.4866C10.2516 21.5956 10.187 21.6945 10.104 21.7767C9.18862 20.6216 8.81898 19.2528 8.66016 17.8031Z" fill="#0C85DB"/>
<path d="M10.1104 21.7941V21.231C11.4272 21.8085 12.1578 23.0069 13.0588 24.0234C13.075 24.0878 13.0765 24.1551 13.063 24.2201C13.0495 24.2851 13.0214 24.3463 12.9808 24.3989C11.6929 23.9022 10.9622 22.7759 10.1104 21.7941Z" fill="#0D89DF"/>
<path d="M12.9775 24.3989V24.1101C14.2511 24.2834 14.9124 25.5771 16.1541 25.8428C15.7469 26.3164 15.1954 26.0536 14.7102 26.1316C14.0365 25.6589 13.4502 25.0726 12.9775 24.3989Z" fill="#0D8EE6"/>
<path d="M29.0912 22.9521C29.4436 21.9414 29.3945 20.8931 29.3945 19.8449C29.3945 16.3622 29.328 12.8795 29.4176 9.39975C29.4551 7.86634 29.1288 6.69679 27.6416 6.03549C27.597 5.98393 27.5737 5.91736 27.5764 5.84926C27.5791 5.78116 27.6075 5.71662 27.656 5.66873C27.6993 5.64852 27.7571 5.60521 27.7831 5.61965C29.5677 6.54662 30.616 5.46082 31.6729 4.26527C32.1205 3.7628 32.5566 3.11016 33.4258 3.30076C33.8503 3.49712 33.6857 3.87831 33.6857 4.16709C33.6857 18.0092 33.6809 31.8523 33.6713 45.6963C33.6713 45.9418 34.0034 46.398 33.3969 46.4645C32.2967 45.4133 31.2051 44.3506 30.0904 43.311C29.6024 42.8547 29.663 42.2858 29.663 41.7169C29.663 38.2834 29.6775 34.8527 29.663 31.4191C29.663 29.4381 29.7468 27.434 28.6206 25.6435C28.1643 24.9187 29.1028 24.4653 29.0912 23.804C28.9909 23.6848 28.9358 23.5339 28.9358 23.3781C28.9358 23.2222 28.9909 23.0714 29.0912 22.9521Z" fill="#1090EA"/>
<path d="M33.3977 46.4788C33.4092 32.3363 33.4304 18.1929 33.4612 4.04859C33.4612 3.43349 33.2302 3.44215 32.8259 3.44504C32.1039 3.9273 31.2838 3.90131 30.4666 3.90131C25.7248 3.90131 20.9831 3.93596 16.2413 3.87821C14.861 3.86088 13.5095 4.48175 12.1205 4.01971L10.9336 4.00238C13.2698 2.42854 15.9872 2.80106 18.5458 2.6971C23.1662 2.50651 27.8214 2.63935 32.462 2.64513C33.0165 2.64513 33.6402 2.49496 33.9925 3.14471C33.9925 17.2544 33.9858 31.3651 33.9723 45.4767C33.9723 45.8579 34.0763 46.2853 33.9377 46.6087C33.7182 47.1141 33.5536 46.6578 33.3977 46.4788Z" fill="#007FEF"/>
<path d="M25.6286 23.2439C25.7701 23.4287 25.9174 23.6106 26.0503 23.7983C26.4199 24.3123 27.3873 24.6646 27.1476 25.2595C26.9079 25.8544 25.9694 25.4184 25.3514 25.5483C26.0156 24.7368 25.1435 24.3441 24.8663 23.7896C24.7305 23.5681 24.6402 23.3217 24.6006 23.0648C24.6014 22.9382 24.6321 22.8135 24.6901 22.701C24.9616 22.4786 25.1406 22.701 25.337 22.8338C25.4134 22.8757 25.4793 22.9344 25.5298 23.0054C25.5803 23.0764 25.6141 23.1579 25.6286 23.2439Z" fill="#0D89DF"/>
<path d="M25.629 23.2438L25.3403 22.955C25.2536 22.8828 25.2248 22.8135 25.2594 22.7471C25.2941 22.6807 25.3229 22.6489 25.3518 22.6489C26.0738 22.9637 26.7957 23.264 27.5148 23.6019C28.2338 23.9398 28.6699 23.7809 28.797 22.9521H29.0857C29.0857 23.2409 29.0857 23.5297 29.0857 23.8185C28.8647 24.0645 28.558 24.2168 28.2284 24.2442C27.8988 24.2716 27.5712 24.172 27.3126 23.9658C26.8073 23.6337 26.273 23.2871 25.629 23.2438Z" fill="#0769B0"/>
<path d="M12.1205 4.01994C13.2499 3.65392 14.4277 3.45924 15.6148 3.44238C21.3537 3.44238 27.0908 3.44238 32.826 3.44238C32.3812 3.93042 31.9596 4.43867 31.4889 4.90938C29.7765 6.64205 29.7562 6.62761 27.6453 5.73817C26.9378 5.92588 26.3689 5.55913 25.7826 5.26746C25.0174 5.05666 24.2377 5.20393 23.4724 5.16062C20.7175 5.18949 17.9625 5.07398 15.222 5.55913C14.2517 5.72951 13.4605 6.4861 12.4151 6.30995C11.6787 6.59873 11.052 6.5814 10.6824 5.73239C10.3041 4.8314 11.1185 4.76499 11.5661 4.43578C11.7567 4.30005 11.9357 4.15855 12.1205 4.01994Z" fill="#1298F8"/>
<path d="M25.9243 5.16345L27.6569 5.74101C27.6569 5.83919 27.6569 5.93738 27.6569 6.02979C23.614 5.04794 19.5134 5.28186 15.4329 5.75834C14.4135 5.87674 13.4288 6.3099 12.4268 6.59868C12.4268 6.5005 12.4268 6.4052 12.4268 6.3099C16.0307 4.79093 19.8368 4.83713 23.6429 4.86601C24.3533 5.27319 25.1908 4.78515 25.9243 5.16345Z" fill="#0D88DD"/>
<path d="M25.0574 23.5268L26.3164 25.0256C26.0681 25.4039 25.531 25.118 25.3432 25.528H19.5966C18.5685 25.9092 17.4596 25.4125 16.42 25.8168H16.1312C14.5516 26.198 14.0174 24.6617 12.9547 24.0842C11.8486 23.2727 10.965 22.2446 10.0669 21.2137C9.27274 19.481 8.71828 17.6993 8.91176 15.7587C9.91671 14.8923 11.0949 15.3804 12.1778 15.4266C12.7727 15.4526 12.6832 16.2352 12.7554 16.7434C12.946 18.2941 13.0269 19.8564 13.9105 21.2512C14.8866 22.7962 16.29 23.6163 18.0516 23.651C20.4109 23.7145 22.7442 23.9196 25.0574 23.5268Z" fill="#139AF8"/>
<path d="M16.4316 25.8195C17.4424 25.216 18.5455 25.6809 19.6082 25.5308C19.6082 25.6232 19.6082 25.7156 19.6082 25.8195H18.1816H16.4316Z" fill="#0D8EE6"/>
<path d="M13.5693 17.7771C13.5057 16.0444 13.2805 14.3118 13.8581 12.6311C14.9294 10.0119 17.0346 9.1484 19.6914 9.18883C20.5029 9.18883 21.3317 9.29857 22.1229 9.16573C23.6621 8.91161 24.1444 9.67975 24.1444 11.011C24.1588 14.3955 24.1906 17.7771 24.1444 21.1587C24.1444 22.1636 23.46 22.6921 22.4463 22.6979C21.1093 22.6979 19.7694 22.7383 18.4381 22.6517C16.7603 22.542 15.4204 21.7853 14.632 20.2462C14.2277 19.4491 13.9216 18.6001 13.5693 17.7771Z" fill="#010102"/>
<path d="M25.0575 23.5269C24.8842 23.6857 24.7109 23.986 24.5348 23.986C21.5199 23.986 18.4213 24.7253 15.5422 23.2987C13.206 22.1436 12.7584 19.8334 12.4292 17.5607C12.1173 15.392 11.9643 15.2505 9.77244 15.5104C9.49462 15.5714 9.22371 15.6604 8.96387 15.776C9.05628 15.083 9.5934 15.2158 10.041 15.1985C11.0171 15.1985 11.996 15.1985 12.9721 15.1985C13.3649 16.2208 13.1338 17.3123 13.3331 18.375C13.585 19.8653 14.2769 21.2462 15.3199 22.34L17.2836 23.2381C17.7745 23.5269 18.3376 23.2381 18.8401 23.4373C20.2118 23.6337 21.6037 23.3623 22.9725 23.5962C23.7089 23.7232 24.041 22.802 24.7687 22.9378L25.0575 23.5269Z" fill="#0088F4"/>
<path d="M15.3196 22.3602C13.3473 21.1127 13.2462 19.0393 12.995 17.0467C12.9511 16.4365 12.9434 15.8241 12.9719 15.213C12.9719 14.8289 12.9719 14.4448 12.9719 14.0579H13.2607C13.3502 15.2823 13.0672 16.5269 13.4541 17.7369C13.4686 19.5215 14.4302 20.9279 15.3196 22.3602Z" fill="#006FE4"/>
<path d="M24.7684 22.958C22.8654 24.3384 20.7862 23.8734 18.7041 23.5356C20.1572 23.3065 21.6359 23.291 23.0935 23.4894L23.9397 22.9349C24.1331 22.6028 24.3439 22.3227 24.7569 22.675C24.7713 22.7732 24.7713 22.8656 24.7684 22.958Z" fill="#0075E8"/>
<path d="M23.1077 23.4951L18.7183 23.5413C18.236 23.4662 17.6931 23.7002 17.2744 23.2525C19.2237 23.3507 21.1758 23.0157 23.1077 23.4951Z" fill="#006FE4"/>
<path d="M24.7713 22.6807L23.9512 22.9406C24.1793 21.696 24.7684 22.1811 25.3518 22.6518C25.3518 22.7529 25.3518 22.8568 25.3518 22.9579L24.7713 22.6807Z" fill="#0167C1"/>
<path d="M25.9235 5.16329C25.1582 5.042 24.3295 5.45207 23.6133 4.87451C24.3843 5.00157 25.2189 4.5944 25.9235 5.16329Z" fill="#1090EA"/>
<path d="M22.5798 15.7818C22.5798 17.116 22.5423 18.4559 22.5798 19.7901C22.6087 20.486 22.3979 20.7142 21.7135 20.6708C20.6623 20.6044 19.6025 20.6939 18.5572 20.6015C16.605 20.4312 15.2911 19.1779 15.0138 17.2633C14.8541 16.2229 14.8415 15.1652 14.9763 14.1213C15.2651 12.0999 16.5213 10.8726 18.5427 10.656C22.5856 10.2459 22.5856 10.2459 22.5856 14.1935L22.5798 15.7818Z" fill="#FEFEFE"/>
</g>
<defs>
<clipPath id="clip0">
<rect width="75.3741" height="49.9269" fill="white"/>
</clipPath>
</defs>
</svg>
