<svg width="216" height="78" viewBox="0 0 216 78" fill="none" xmlns="http://www.w3.org/2000/svg">
<g clip-path="url(#clip0)">
<path d="M52.6217 50.5598C66.6379 50.5598 78.0002 39.2416 78.0002 25.2799C78.0002 11.3182 66.6379 0 52.6217 0C38.6055 0 27.2432 11.3182 27.2432 25.2799C27.2432 39.2416 38.6055 50.5598 52.6217 50.5598Z" fill="url(#paint0_radial)"/>
<path d="M64.773 40.5068C64.773 40.6493 64.7365 40.7691 64.6665 40.8661C64.595 40.9646 64.4702 41.048 64.2921 41.1193C64.114 41.1905 63.8781 41.2436 63.5829 41.2785C63.2891 41.3133 62.9178 41.3315 62.4734 41.3315C62.0457 41.3315 61.6804 41.3133 61.3776 41.2785C61.0747 41.2421 60.8388 41.189 60.6683 41.1193C60.4979 41.048 60.3746 40.9646 60.2939 40.8661C60.2133 40.7691 60.1737 40.6493 60.1737 40.5068V10.6712H44.528V40.5068C44.528 40.6493 44.4885 40.7691 44.4078 40.8661C44.3271 40.9646 44.2023 41.048 44.0334 41.1193C43.8645 41.1905 43.6316 41.2436 43.3379 41.2785C43.0441 41.3133 42.6728 41.3315 42.2284 41.3315C41.7824 41.3315 41.4126 41.3133 41.1189 41.2785C40.8251 41.2421 40.5877 41.189 40.4096 41.1193C40.2316 41.048 40.1068 40.9646 40.0352 40.8661C39.9637 40.7691 39.9287 40.6493 39.9287 40.5068V8.56546C39.9287 7.94388 40.084 7.47846 40.396 7.16616C40.708 6.85537 41.1052 6.69922 41.5861 6.69922H63.1674C63.6666 6.69922 64.0592 6.85537 64.3438 7.16616C64.6285 7.47694 64.7715 7.94388 64.7715 8.56546V40.5068H64.773Z" fill="url(#paint1_radial)"/>
<path d="M64.773 40.5068C64.773 40.6493 64.7365 40.7691 64.6665 40.8661C64.595 40.9646 64.4702 41.048 64.2921 41.1193C64.114 41.1905 63.8781 41.2436 63.5829 41.2785C63.2891 41.3133 62.9178 41.3315 62.4734 41.3315C62.0457 41.3315 61.6804 41.3133 61.3776 41.2785C61.0747 41.2421 60.8388 41.189 60.6683 41.1193C60.4979 41.048 60.3746 40.9646 60.2939 40.8661C60.2133 40.7691 60.1737 40.6493 60.1737 40.5068V10.6712H44.528V40.5068C44.528 40.6493 44.4885 40.7691 44.4078 40.8661C44.3271 40.9646 44.2023 41.048 44.0334 41.1193C43.8645 41.1905 43.6316 41.2436 43.3379 41.2785C43.0441 41.3133 42.6728 41.3315 42.2284 41.3315C41.7824 41.3315 41.4126 41.3133 41.1189 41.2785C40.8251 41.2421 40.5877 41.189 40.4096 41.1193C40.2316 41.048 40.1068 40.9646 40.0352 40.8661C39.9637 40.7691 39.9287 40.6493 39.9287 40.5068V8.56546C39.9287 7.94388 40.084 7.47846 40.396 7.16616C40.708 6.85537 41.1052 6.69922 41.5861 6.69922H63.1674C63.6666 6.69922 64.0592 6.85537 64.3438 7.16616C64.6285 7.47694 64.7715 7.94388 64.7715 8.56546V40.5068H64.773Z" fill="#FEFEFE"/>
<path d="M25.3785 78.0012C39.3947 78.0012 50.7571 66.683 50.7571 52.7213C50.7571 38.7596 39.3947 27.4414 25.3785 27.4414C11.3624 27.4414 0 38.7596 0 52.7213C0 66.683 11.3624 78.0012 25.3785 78.0012Z" fill="url(#paint2_radial)"/>
<path d="M32.7487 68.4375C31.9207 68.4375 31.2298 68.1661 30.6788 67.6233C30.1264 67.0806 29.8509 66.4166 29.8509 65.6328C29.8509 64.8899 29.8235 63.7772 29.7687 62.2914C29.7139 60.8057 29.6865 59.699 29.6865 58.9713C24.5241 60.5662 19.7071 63.4467 15.2341 67.6127C14.6268 68.1903 13.9435 68.4784 13.184 68.4784C12.3835 68.4784 11.694 68.1964 11.1142 67.6324C10.5343 67.0685 10.2451 66.409 10.2451 65.6525C10.2451 64.993 10.4871 64.3805 10.9696 63.8166C12.875 61.6441 15.9737 59.3549 20.2656 56.9489C15.0621 55.0372 12.4596 52.322 12.4596 48.8018C12.4596 44.4432 15.4061 40.7789 21.3006 37.809C22.6536 37.1359 24.2958 36.675 26.2286 36.4279C26.3808 36.4142 28.0991 36.2839 31.385 36.0367C32.6269 35.9412 33.601 36.3597 34.3041 37.2951C34.8429 38.0243 35.1123 38.8353 35.1123 39.7283C35.1123 41.5991 35.1853 44.3825 35.3299 48.0817C35.4745 51.7808 35.5476 54.5506 35.5476 56.3941C35.5476 57.425 35.5689 58.9653 35.61 61.0134C35.651 63.0631 35.6724 64.6019 35.6724 65.6328C35.6724 66.4166 35.3923 67.0806 34.8338 67.6233C34.2706 68.1661 33.5781 68.4375 32.7487 68.4375ZM29.2497 41.8523C28.7657 41.8795 28.0489 41.9341 27.0962 42.0175C25.0385 42.2237 23.0797 43.0075 21.2153 44.3689C19.2551 45.7849 18.2749 47.263 18.2749 48.8033C18.2749 49.1065 18.5717 49.5522 19.1653 50.1435C19.7588 50.7347 20.4011 51.2092 21.0905 51.567C22.719 52.4054 25.2318 52.8253 28.6272 52.8253C28.8205 52.8253 29.1371 52.8193 29.58 52.8041C29.5663 52.1173 29.4978 50.3709 29.373 47.5647C29.2771 45.283 29.236 43.3789 29.2497 41.8523Z" fill="url(#paint3_radial)"/>
<path d="M32.7487 68.4375C31.9207 68.4375 31.2298 68.1661 30.6788 67.6233C30.1264 67.0806 29.8509 66.4166 29.8509 65.6328C29.8509 64.8899 29.8235 63.7772 29.7687 62.2914C29.7139 60.8057 29.6865 59.699 29.6865 58.9713C24.5241 60.5662 19.7071 63.4467 15.2341 67.6127C14.6268 68.1903 13.9435 68.4784 13.184 68.4784C12.3835 68.4784 11.694 68.1964 11.1142 67.6324C10.5343 67.0685 10.2451 66.409 10.2451 65.6525C10.2451 64.993 10.4871 64.3805 10.9696 63.8166C12.875 61.6441 15.9737 59.3549 20.2656 56.9489C15.0621 55.0372 12.4596 52.322 12.4596 48.8018C12.4596 44.4432 15.4061 40.7789 21.3006 37.809C22.6536 37.1359 24.2958 36.675 26.2286 36.4279C26.3808 36.4142 28.0991 36.2839 31.385 36.0367C32.6269 35.9412 33.601 36.3597 34.3041 37.2951C34.8429 38.0243 35.1123 38.8353 35.1123 39.7283C35.1123 41.5991 35.1853 44.3825 35.3299 48.0817C35.4745 51.7808 35.5476 54.5506 35.5476 56.3941C35.5476 57.425 35.5689 58.9653 35.61 61.0134C35.651 63.0631 35.6724 64.6019 35.6724 65.6328C35.6724 66.4166 35.3923 67.0806 34.8338 67.6233C34.2706 68.1661 33.5781 68.4375 32.7487 68.4375ZM29.2497 41.8523C28.7657 41.8795 28.0489 41.9341 27.0962 42.0175C25.0385 42.2237 23.0797 43.0075 21.2153 44.3689C19.2551 45.7849 18.2749 47.263 18.2749 48.8033C18.2749 49.1065 18.5717 49.5522 19.1653 50.1435C19.7588 50.7347 20.4011 51.2092 21.0905 51.567C22.719 52.4054 25.2318 52.8253 28.6272 52.8253C28.8205 52.8253 29.1371 52.8193 29.58 52.8041C29.5663 52.1173 29.4978 50.3709 29.373 47.5647C29.2771 45.283 29.236 43.3789 29.2497 41.8523Z" fill="white"/>
</g>
<path d="M109.637 15.6576C110.015 15.6576 110.339 15.7926 110.609 16.0626C110.879 16.3326 111.014 16.6476 111.014 17.0076V33.1536C111.014 33.5316 110.879 33.8466 110.609 34.0986C110.357 34.3506 110.042 34.4766 109.664 34.4766C109.286 34.4766 108.971 34.3506 108.719 34.0986C108.449 33.8466 108.314 33.5316 108.314 33.1536V26.4846H105.56L101.078 33.8286C100.79 34.2606 100.403 34.4766 99.9169 34.4766C99.6289 34.4766 99.3949 34.4136 99.2149 34.2876C98.8909 34.0896 98.6839 33.8016 98.5939 33.4236C98.5039 33.0636 98.5579 32.7306 98.7559 32.4246L102.536 26.2686C101.33 25.8366 100.367 25.1526 99.6469 24.2166C98.9089 23.2626 98.5399 22.1916 98.5399 21.0036C98.5759 19.5096 99.1339 18.2406 100.214 17.1966C101.276 16.1706 102.509 15.6576 103.913 15.6576H109.637ZM108.314 23.7846V18.3576H104.021C103.211 18.3576 102.554 18.6096 102.05 19.1136C101.528 19.6356 101.249 20.2746 101.213 21.0306C101.249 21.8046 101.528 22.4526 102.05 22.9746C102.59 23.5146 103.247 23.7846 104.021 23.7846H108.314ZM115.187 39.9306C115.187 40.2546 115.061 40.5696 114.809 40.8756C114.503 41.1276 114.188 41.2536 113.864 41.2536C113.486 41.2536 113.171 41.1276 112.919 40.8756C112.649 40.6056 112.514 40.2906 112.514 39.9306V27.8076C112.514 25.9536 113.18 24.3606 114.512 23.0286C115.844 21.6966 117.437 21.0306 119.291 21.0306C121.163 21.0306 122.765 21.6966 124.097 23.0286C125.411 24.3426 126.068 25.9356 126.068 27.8076C126.068 29.6976 125.411 31.2996 124.097 32.6136C122.783 33.9276 121.181 34.5846 119.291 34.5846C117.779 34.5846 116.411 34.1256 115.187 33.2076V39.9306ZM115.187 27.8346C115.187 28.9506 115.592 29.9136 116.402 30.7236C117.194 31.5156 118.157 31.9116 119.291 31.9116C120.425 31.9116 121.397 31.5066 122.207 30.6966C122.999 29.9046 123.395 28.9416 123.395 27.8076C123.395 26.7276 122.999 25.7646 122.207 24.9186C121.397 24.1086 120.425 23.7036 119.291 23.7036C118.157 23.7036 117.194 24.0996 116.402 24.8916C115.592 25.7016 115.187 26.6736 115.187 27.8076V27.8346ZM140.128 26.0526L137.32 33.5316C137.176 33.9636 136.915 34.2426 136.537 34.3686C136.519 34.3686 136.501 34.3776 136.483 34.3956H136.429C136.411 34.4136 136.393 34.4226 136.375 34.4226H136.321C136.303 34.4226 136.294 34.4316 136.294 34.4496H135.997C135.871 34.4496 135.736 34.4226 135.592 34.3686C135.214 34.2246 134.944 33.9456 134.782 33.5316L131.974 26.0526L129.139 33.5856C129.013 33.9276 128.788 34.1796 128.464 34.3416C128.14 34.5036 127.798 34.5126 127.438 34.3686C127.096 34.2426 126.844 34.0086 126.682 33.6666C126.52 33.3426 126.511 33.0006 126.655 32.6406L130.705 21.8406C130.921 21.2466 131.344 20.9496 131.974 20.9496C132.604 20.9496 133.036 21.2466 133.27 21.8406L136.051 29.3196L138.859 21.8406C139.075 21.2466 139.498 20.9496 140.128 20.9496C140.758 20.9496 141.19 21.2466 141.424 21.8406L145.474 32.6406C145.6 32.9646 145.582 33.3066 145.42 33.6666C145.294 33.9906 145.051 34.2246 144.691 34.3686C144.493 34.4946 144.151 34.4856 143.665 34.3416C143.341 34.1976 143.107 33.9456 142.963 33.5856L140.128 26.0526ZM159.974 33.0996C159.974 33.4956 159.848 33.8196 159.596 34.0716C159.344 34.3236 159.02 34.4496 158.624 34.4496C158.372 34.4496 158.093 34.3236 157.787 34.0716C157.481 33.7656 157.328 33.4416 157.328 33.0996C156.212 33.9996 154.88 34.4496 153.332 34.4496C151.424 34.4496 149.813 33.8196 148.499 32.5596C147.167 31.2816 146.501 29.6976 146.501 27.8076C146.501 25.9176 147.167 24.3066 148.499 22.9746C149.831 21.6426 151.442 20.9766 153.332 20.9766C155.222 20.9766 156.806 21.6426 158.084 22.9746C159.344 24.2886 159.974 25.8996 159.974 27.8076V33.0996ZM150.389 30.6426C151.163 31.4166 152.144 31.8036 153.332 31.8036C154.466 31.8036 155.42 31.4166 156.194 30.6426C156.95 29.8866 157.328 28.9416 157.328 27.8076C157.328 26.6556 156.95 25.6746 156.194 24.8646C155.42 24.0366 154.466 23.6226 153.332 23.6226C152.198 23.6226 151.217 24.0366 150.389 24.8646C149.561 25.6926 149.147 26.6736 149.147 27.8076C149.147 28.9236 149.561 29.8686 150.389 30.6426ZM164.045 39.9306C164.045 40.2546 163.919 40.5696 163.667 40.8756C163.361 41.1276 163.046 41.2536 162.722 41.2536C162.344 41.2536 162.029 41.1276 161.777 40.8756C161.507 40.6056 161.372 40.2906 161.372 39.9306V27.8076C161.372 25.9536 162.038 24.3606 163.37 23.0286C164.702 21.6966 166.295 21.0306 168.149 21.0306C170.021 21.0306 171.623 21.6966 172.955 23.0286C174.269 24.3426 174.926 25.9356 174.926 27.8076C174.926 29.6976 174.269 31.2996 172.955 32.6136C171.641 33.9276 170.039 34.5846 168.149 34.5846C166.637 34.5846 165.269 34.1256 164.045 33.2076V39.9306ZM164.045 27.8346C164.045 28.9506 164.45 29.9136 165.26 30.7236C166.052 31.5156 167.015 31.9116 168.149 31.9116C169.283 31.9116 170.255 31.5066 171.065 30.6966C171.857 29.9046 172.253 28.9416 172.253 27.8076C172.253 26.7276 171.857 25.7646 171.065 24.9186C170.255 24.1086 169.283 23.7036 168.149 23.7036C167.015 23.7036 166.052 24.0996 165.26 24.8916C164.45 25.7016 164.045 26.6736 164.045 27.8076V27.8346ZM180.05 27.7806L179.213 28.3476V33.0726C179.213 33.4506 179.078 33.7656 178.808 34.0176C178.538 34.2876 178.223 34.4226 177.863 34.4226C177.503 34.4226 177.188 34.2876 176.918 34.0176C176.666 33.7656 176.54 33.4506 176.54 33.0726V22.1916C176.54 21.8676 176.666 21.5526 176.918 21.2466C177.224 20.9946 177.539 20.8686 177.863 20.8686C178.187 20.8686 178.502 20.9946 178.808 21.2466C179.078 21.5166 179.213 21.8316 179.213 22.1916V25.1886L185.342 21.1656C185.576 20.9316 185.9 20.8326 186.314 20.8686C186.692 20.9046 186.998 21.0576 187.232 21.3276C187.466 21.5616 187.565 21.8856 187.529 22.2996C187.511 22.6596 187.349 22.9656 187.043 23.2176L182.318 26.3226L187.232 32.2356C187.466 32.4696 187.565 32.7936 187.529 33.2076C187.511 33.5496 187.349 33.8466 187.043 34.0986C186.809 34.3146 186.53 34.4226 186.206 34.4226C185.774 34.4226 185.432 34.2606 185.18 33.9366L180.05 27.7806ZM201.845 33.0996C201.845 33.4956 201.719 33.8196 201.467 34.0716C201.215 34.3236 200.891 34.4496 200.495 34.4496C200.243 34.4496 199.964 34.3236 199.658 34.0716C199.352 33.7656 199.199 33.4416 199.199 33.0996C198.083 33.9996 196.751 34.4496 195.203 34.4496C193.295 34.4496 191.684 33.8196 190.37 32.5596C189.038 31.2816 188.372 29.6976 188.372 27.8076C188.372 25.9176 189.038 24.3066 190.37 22.9746C191.702 21.6426 193.313 20.9766 195.203 20.9766C197.093 20.9766 198.677 21.6426 199.955 22.9746C201.215 24.2886 201.845 25.8996 201.845 27.8076V33.0996ZM192.26 30.6426C193.034 31.4166 194.015 31.8036 195.203 31.8036C196.337 31.8036 197.291 31.4166 198.065 30.6426C198.821 29.8866 199.199 28.9416 199.199 27.8076C199.199 26.6556 198.821 25.6746 198.065 24.8646C197.291 24.0366 196.337 23.6226 195.203 23.6226C194.069 23.6226 193.088 24.0366 192.26 24.8646C191.432 25.6926 191.018 26.6736 191.018 27.8076C191.018 28.9236 191.432 29.8686 192.26 30.6426ZM112.445 60.1266C112.445 60.5046 112.31 60.8196 112.04 61.0716C111.77 61.3416 111.455 61.4766 111.095 61.4766C110.717 61.4766 110.402 61.3416 110.15 61.0716C109.88 60.8196 109.745 60.5046 109.745 60.1266V45.3306H101.402V60.1266C101.402 60.5046 101.267 60.8196 100.997 61.0716C100.727 61.3416 100.412 61.4766 100.052 61.4766C99.6739 61.4766 99.3589 61.3416 99.1069 61.0716C98.8369 60.8196 98.7019 60.5046 98.7019 60.1266V43.9806C98.7019 43.6206 98.8369 43.3056 99.1069 43.0356C99.3589 42.7656 99.6739 42.6306 100.052 42.6306H111.095C111.455 42.6306 111.77 42.7656 112.04 43.0356C112.31 43.3056 112.445 43.6206 112.445 43.9806V60.1266ZM116.637 66.9306C116.637 67.2546 116.511 67.5696 116.259 67.8756C115.953 68.1276 115.638 68.2536 115.314 68.2536C114.936 68.2536 114.621 68.1276 114.369 67.8756C114.099 67.6056 113.964 67.2906 113.964 66.9306V54.8076C113.964 52.9536 114.63 51.3606 115.962 50.0286C117.294 48.6966 118.887 48.0306 120.741 48.0306C122.613 48.0306 124.215 48.6966 125.547 50.0286C126.861 51.3426 127.518 52.9356 127.518 54.8076C127.518 56.6976 126.861 58.2996 125.547 59.6136C124.233 60.9276 122.631 61.5846 120.741 61.5846C119.229 61.5846 117.861 61.1256 116.637 60.2076V66.9306ZM116.637 54.8346C116.637 55.9506 117.042 56.9136 117.852 57.7236C118.644 58.5156 119.607 58.9116 120.741 58.9116C121.875 58.9116 122.847 58.5066 123.657 57.6966C124.449 56.9046 124.845 55.9416 124.845 54.8076C124.845 53.7276 124.449 52.7646 123.657 51.9186C122.847 51.1086 121.875 50.7036 120.741 50.7036C119.607 50.7036 118.644 51.0996 117.852 51.8916C117.042 52.7016 116.637 53.6736 116.637 54.8076V54.8346ZM140.472 59.4786C139.14 60.8106 137.538 61.4766 135.666 61.4766C133.812 61.4766 132.219 60.8106 130.887 59.4786C129.555 58.1466 128.889 56.5536 128.889 54.6996C128.889 52.8276 129.555 51.2256 130.887 49.8936C132.201 48.5796 133.794 47.9226 135.666 47.9226C137.556 47.9226 139.158 48.5796 140.472 49.8936C141.786 51.2076 142.443 52.8096 142.443 54.6996C142.443 56.5716 141.786 58.1646 140.472 59.4786ZM138.582 51.7836C137.736 50.9916 136.764 50.5956 135.666 50.5956C134.532 50.5956 133.569 50.9916 132.777 51.7836C131.967 52.5936 131.562 53.5656 131.562 54.6996C131.562 55.8156 131.967 56.7786 132.777 57.5886C133.569 58.3986 134.532 58.8036 135.666 58.8036C136.8 58.8036 137.772 58.3986 138.582 57.5886C139.374 56.7426 139.77 55.7796 139.77 54.6996C139.77 53.6016 139.374 52.6296 138.582 51.7836ZM146.188 56.0226C146.476 56.8506 146.971 57.5166 147.673 58.0206C148.411 58.5426 149.212 58.8036 150.076 58.8036C150.418 58.8036 150.598 58.7946 150.616 58.7766L150.832 58.7496L151.048 58.7226L151.21 58.6956L151.345 58.6686C151.903 58.5426 152.488 58.2906 153.1 57.9126C153.406 57.7146 153.739 57.6876 154.099 57.8316C154.477 57.9756 154.738 58.2096 154.882 58.5336C155.206 59.1996 154.99 59.7936 154.234 60.3156C153.334 60.8376 152.542 61.1796 151.858 61.3416L151.669 61.3686L151.453 61.3956L151.183 61.4226L150.886 61.4496L150.481 61.4766H150.076C148.204 61.4766 146.602 60.8106 145.27 59.4786C143.956 58.1646 143.299 56.5716 143.299 54.6996C143.299 52.8096 143.956 51.2076 145.27 49.8936C146.584 48.5796 148.186 47.9226 150.076 47.9226C151.894 47.9226 153.433 48.4986 154.693 49.6506C156.133 50.9466 156.853 52.6296 156.853 54.6996C156.853 55.0236 156.727 55.3386 156.475 55.6446C156.169 55.8966 155.845 56.0226 155.503 56.0226H146.188ZM153.991 53.3496C153.721 52.4496 153.199 51.7566 152.425 51.2706C151.759 50.8206 150.976 50.5956 150.076 50.5956C149.212 50.5956 148.411 50.8566 147.673 51.3786C146.971 51.8826 146.476 52.5396 146.188 53.3496H153.991ZM161.434 54.7806L160.597 55.3476V60.0726C160.597 60.4506 160.462 60.7656 160.192 61.0176C159.922 61.2876 159.607 61.4226 159.247 61.4226C158.887 61.4226 158.572 61.2876 158.302 61.0176C158.05 60.7656 157.924 60.4506 157.924 60.0726V49.1916C157.924 48.8676 158.05 48.5526 158.302 48.2466C158.608 47.9946 158.923 47.8686 159.247 47.8686C159.571 47.8686 159.886 47.9946 160.192 48.2466C160.462 48.5166 160.597 48.8316 160.597 49.1916V52.1886L166.726 48.1656C166.96 47.9316 167.284 47.8326 167.698 47.8686C168.076 47.9046 168.382 48.0576 168.616 48.3276C168.85 48.5616 168.949 48.8856 168.913 49.2996C168.895 49.6596 168.733 49.9656 168.427 50.2176L163.702 53.3226L168.616 59.2356C168.85 59.4696 168.949 59.7936 168.913 60.2076C168.895 60.5496 168.733 60.8466 168.427 61.0986C168.193 61.3146 167.914 61.4226 167.59 61.4226C167.158 61.4226 166.816 61.2606 166.564 60.9366L161.434 54.7806ZM188.927 60.1806C188.927 60.5586 188.792 60.8736 188.522 61.1256C188.252 61.3956 187.937 61.5306 187.577 61.5306C187.217 61.5306 186.902 61.3956 186.632 61.1256C186.38 60.8736 186.254 60.5586 186.254 60.1806V53.3766C186.254 52.6206 185.984 51.9726 185.444 51.4326C184.868 50.9106 184.22 50.6496 183.5 50.6496C182.78 50.6496 182.132 50.9106 181.556 51.4326C181.016 51.9726 180.746 52.6206 180.746 53.3766V60.1806C180.746 60.5586 180.62 60.8736 180.368 61.1256C180.098 61.3956 179.783 61.5306 179.423 61.5306C179.063 61.5306 178.748 61.3956 178.478 61.1256C178.208 60.8736 178.073 60.5586 178.073 60.1806V53.3766C178.073 52.6566 177.812 52.0086 177.29 51.4326C176.714 50.9106 176.066 50.6496 175.346 50.6496C174.626 50.6496 173.978 50.9106 173.402 51.4326C172.862 51.9726 172.592 52.6206 172.592 53.3766V60.1806C172.592 60.5586 172.466 60.8736 172.214 61.1256C171.944 61.3956 171.629 61.5306 171.269 61.5306C170.891 61.5306 170.576 61.3956 170.324 61.1256C170.054 60.8736 169.919 60.5586 169.919 60.1806V53.3766C169.919 51.9006 170.45 50.6316 171.512 49.5696C172.574 48.5076 173.852 47.9766 175.346 47.9766C177.02 47.9766 178.379 48.5976 179.423 49.8396C180.485 48.5976 181.844 47.9766 183.5 47.9766C184.994 47.9766 186.272 48.5076 187.334 49.5696C188.396 50.6316 188.927 51.9006 188.927 53.3766C188.927 53.4306 188.918 53.4666 188.9 53.4846C188.918 53.5026 188.927 53.5476 188.927 53.6196V60.1806ZM202.013 59.4786C200.681 60.8106 199.079 61.4766 197.207 61.4766C195.353 61.4766 193.76 60.8106 192.428 59.4786C191.096 58.1466 190.43 56.5536 190.43 54.6996C190.43 52.8276 191.096 51.2256 192.428 49.8936C193.742 48.5796 195.335 47.9226 197.207 47.9226C199.097 47.9226 200.699 48.5796 202.013 49.8936C203.327 51.2076 203.984 52.8096 203.984 54.6996C203.984 56.5716 203.327 58.1646 202.013 59.4786ZM200.123 51.7836C199.277 50.9916 198.305 50.5956 197.207 50.5956C196.073 50.5956 195.11 50.9916 194.318 51.7836C193.508 52.5936 193.103 53.5656 193.103 54.6996C193.103 55.8156 193.508 56.7786 194.318 57.5886C195.11 58.3986 196.073 58.8036 197.207 58.8036C198.341 58.8036 199.313 58.3986 200.123 57.5886C200.915 56.7426 201.311 55.7796 201.311 54.6996C201.311 53.6016 200.915 52.6296 200.123 51.7836ZM209.943 61.4226C208.665 61.4226 207.585 60.9816 206.703 60.0996C205.821 59.2176 205.38 58.1376 205.38 56.8596V53.0796C205.38 52.8276 205.452 52.4316 205.596 51.8916V51.7836C205.668 50.1276 205.902 48.8676 206.298 48.0036C207.126 45.9876 208.737 44.9796 211.131 44.9796C213.597 44.9796 214.83 46.1226 214.83 48.4086C214.83 49.6506 214.569 50.6406 214.047 51.3786C213.543 52.0446 212.823 52.4946 211.887 52.7286C212.445 53.0526 212.868 53.3586 213.156 53.6466C214.056 54.5466 214.506 55.6176 214.506 56.8596C214.506 58.1196 214.056 59.1996 213.156 60.0996C212.274 60.9816 211.203 61.4226 209.943 61.4226ZM212.13 56.9136C212.13 56.3196 211.914 55.8066 211.482 55.3746C211.086 54.9426 210.573 54.7266 209.943 54.7266C209.331 54.7266 208.809 54.9426 208.377 55.3746C207.963 55.8426 207.756 56.3556 207.756 56.9136C207.756 57.4896 207.963 58.0116 208.377 58.4796C208.845 58.8936 209.367 59.1006 209.943 59.1006C210.555 59.1006 211.068 58.8936 211.482 58.4796C211.914 58.0476 212.13 57.5346 212.13 56.9406V56.9136ZM209.7 51.8646C211.338 51.4686 212.157 50.5956 212.157 49.2456C212.157 48.6876 212.094 48.2916 211.968 48.0576C211.842 47.7696 211.41 47.6256 210.672 47.6256C210.15 47.6256 209.601 48.0216 209.025 48.8136C208.449 49.6056 208.125 50.7036 208.053 52.1076L209.7 51.8646Z" fill="#4F6CCD"/>
<defs>
<radialGradient id="paint0_radial" cx="0" cy="0" r="1" gradientUnits="userSpaceOnUse" gradientTransform="translate(54.3364 18.8617) scale(73.5964 73.3103)">
<stop stop-color="#6979B8"/>
<stop offset="0.1628" stop-color="#6073B0"/>
<stop offset="0.4277" stop-color="#486299"/>
<stop offset="0.7596" stop-color="#214774"/>
<stop offset="1" stop-color="#003055"/>
</radialGradient>
<radialGradient id="paint1_radial" cx="0" cy="0" r="1" gradientUnits="userSpaceOnUse" gradientTransform="translate(52.3501 24.0169) scale(15.1078 15.049)">
<stop stop-color="#5170D6"/>
<stop offset="1"/>
</radialGradient>
<radialGradient id="paint2_radial" cx="0" cy="0" r="1" gradientUnits="userSpaceOnUse" gradientTransform="translate(23.2396 45.0271) scale(88.9517 88.6059)">
<stop stop-color="#5474DE"/>
<stop offset="0.0986" stop-color="#5271D7"/>
<stop offset="0.2372" stop-color="#4B67C5"/>
<stop offset="0.3997" stop-color="#3F57A7"/>
<stop offset="0.5802" stop-color="#2F417D"/>
<stop offset="0.7755" stop-color="#1B2547"/>
<stop offset="0.9804" stop-color="#020307"/>
<stop offset="1"/>
</radialGradient>
<radialGradient id="paint3_radial" cx="0" cy="0" r="1" gradientUnits="userSpaceOnUse" gradientTransform="translate(22.9555 52.2507) scale(14.6123 14.5555)">
<stop stop-color="#5170D6"/>
<stop offset="1"/>
</radialGradient>
<clipPath id="clip0">
<rect width="78" height="78" fill="white"/>
</clipPath>
</defs>
</svg>
