<svg width="51" height="50" viewBox="0 0 51 50" fill="none" xmlns="http://www.w3.org/2000/svg">
<g clip-path="url(#clip0)">
<path d="M7.34227 45C9.88767 45 11.9511 42.9236 11.9511 40.3623C11.9511 37.801 9.88767 35.7246 7.34227 35.7246C4.79686 35.7246 2.7334 37.801 2.7334 40.3623C2.7334 42.9236 4.79686 45 7.34227 45Z" fill="#294152"/>
<path d="M45.1499 49.7102C47.6953 49.7102 49.7588 47.6338 49.7588 45.0725C49.7588 42.5112 47.6953 40.4348 45.1499 40.4348C42.6045 40.4348 40.541 42.5112 40.541 45.0725C40.541 47.6338 42.6045 49.7102 45.1499 49.7102Z" fill="#294152"/>
<path d="M26.9459 24.9275C33.7867 24.9275 39.3322 19.3473 39.3322 12.4638C39.3322 5.58022 33.7867 0 26.9459 0C20.1051 0 14.5596 5.58022 14.5596 12.4638C14.5596 19.3473 20.1051 24.9275 26.9459 24.9275Z" fill="#294152"/>
<path d="M33.1954 25.8435L26.9604 30.7392L20.7154 25.7595C20.7154 25.7595 10.7775 28.2232 6.42936 33.7827L2.17913 19.0276L0 19.6696L4.29632 34.9986L4.30641 35.0276C5.0957 34.58 5.97318 34.3125 6.87665 34.2442C7.78012 34.176 8.68746 34.3085 9.53435 34.6324C10.3812 34.9564 11.1469 35.4638 11.7772 36.1188C12.4074 36.7737 12.8868 37.5602 13.1813 38.4223C13.4758 39.2845 13.5782 40.2013 13.4812 41.1078C13.3843 42.0142 13.0904 42.8881 12.6204 43.6675C12.1503 44.4469 11.5157 45.1127 10.7614 45.6177C10.0071 46.1228 9.15163 46.4547 8.25563 46.5899L8.2902 46.6928C12.323 48.4812 18.8042 49.3638 18.8042 49.3638V34.5145C18.8042 34.5145 27.1102 34.7363 31.8501 37.9928L31.8991 50.0001H33.4834V37.9711C34.5708 36.529 44.104 34.0059 46.237 34.5943V38.9711C49.4359 39.729 50.5132 41.8827 50.8992 42.7392C51.0173 42.4638 52.9271 31.5943 33.1954 25.8435Z" fill="#294152"/>
</g>
<defs>
<clipPath id="clip0">
<rect width="51" height="50" fill="white"/>
</clipPath>
</defs>
</svg>
