<svg width="47" height="47" viewBox="0 0 47 47" fill="none" xmlns="http://www.w3.org/2000/svg">
<path fill-rule="evenodd" clip-rule="evenodd" d="M47 37.3314V0H0V37.1971L15.5771 37.3314C15.5771 37.3314 17.1657 42.8707 16.92 43.3743C16.6125 44.0041 8.90449 43.9047 6.98286 45.2543C6.58671 45.5323 7.08491 46.4709 8.46 46.4629C9.32749 46.7878 11.0114 46.8657 11.0114 46.8657H37.1971C37.1971 46.8657 40.0803 46.4387 39.8829 45.6572C39.6855 44.8756 36.4425 43.9504 33.7057 43.9114C32.2313 43.8899 29.5899 44.0229 29.6771 43.5086C29.1628 43.2373 30.0558 37.9666 30.6171 37.3314C30.5916 37.3274 47 37.3314 47 37.3314ZM4.56571 31.6646V4.7H42.3V31.6646H4.56571Z" fill="#294152"/>
<path fill-rule="evenodd" clip-rule="evenodd" d="M41.6286 15.5328V13.07L38.9429 12.6228L38.2714 11.0557L39.8385 8.81718L38.0485 7.02715L35.81 8.59426L34.0199 7.92284L33.5714 5.23712H31.3329L30.8857 7.69858L29.0957 8.59426L26.8571 7.02715L25.29 8.81718L26.6329 10.8315L25.9615 12.6215L23.5 13.07V15.5315L25.7385 15.7557L26.6342 17.9943L25.0671 19.7843L26.8571 21.5757L28.8714 20.0086L30.6615 20.68L31.1086 23.3657H33.5714L34.2429 20.9042L35.81 20.0086L38.0485 21.5757L39.8385 20.0086L38.0485 17.77L38.9442 15.7557L41.6286 15.5328ZM32.4515 17.5484C30.7205 17.5484 29.3173 16.1452 29.3173 14.4142C29.3173 12.6833 30.7205 11.28 32.4515 11.28C34.1824 11.28 35.5857 12.6833 35.5857 14.4142C35.5857 16.1452 34.1824 17.5484 32.4515 17.5484Z" fill="#294152"/>
<path fill-rule="evenodd" clip-rule="evenodd" d="M23.0647 23.1871V20.7256L20.379 20.2785L19.7076 18.7114L21.2747 16.4728L19.4847 14.6828L17.2461 16.2499L15.4561 15.5785L15.0089 12.8928H12.7704L12.3232 15.3542L10.5332 16.2499L8.29464 14.6828L6.72753 16.4728L8.07039 18.4871L7.39896 20.2771L4.9375 20.7243V23.1858L7.17604 23.41L8.07173 25.6486L6.50461 27.4386L8.29464 29.2286L10.3089 27.6615L12.099 28.3329L12.5461 31.0186H15.0076L15.679 28.5572L17.2461 27.6615L19.4847 29.2286L21.2747 27.6615L19.4847 25.423L20.3804 23.4087L23.0647 23.1871ZM13.8876 25.2041C12.1567 25.2041 10.7534 23.8008 10.7534 22.0698C10.7534 20.3389 12.1567 18.9356 13.8876 18.9356C15.6186 18.9356 17.0219 20.3389 17.0219 22.0698C17.0219 23.8008 15.6186 25.2041 13.8876 25.2041Z" fill="#294152"/>
</svg>
