<?xml version="1.0" encoding="utf-8"?>
<!-- Generator: Adobe Illustrator 24.1.3, SVG Export Plug-In . SVG Version: 6.00 Build 0)  -->
<svg version="1.1" id="Capa_1" xmlns="http://www.w3.org/2000/svg" xmlns:xlink="http://www.w3.org/1999/xlink" x="0px" y="0px"
	 viewBox="0 0 512 512" style="enable-background:new 0 0 512 512;" xml:space="preserve">
<style type="text/css">
	.st0{fill:#FFC950;}
</style>
<g>
	<path class="st0" d="M98.6,295.4c-15-72,40-135.4,109.4-135.4h16v48c0,6.4,3.8,12.2,9.9,14.7s12.8,1.3,17.3-3.5l96-96
		c6.4-6.1,6.4-16.3,0-22.4l-96-96C246.7,0,240-1.3,233.9,1.3S224,9.6,224,16v48h-16C84.5,64-14.7,172.8,1.9,299.5
		c6.4,49.5,30.6,92.3,65.8,123.9c6.2,5.6,15.9,5,21.9-1L134,378c6.4-6.4,6.4-16.9-0.4-22.8C116.1,339.9,103.5,319.4,98.6,295.4z"/>
	<path class="st0" d="M510.1,212.5c-6.4-49.5-30.6-92.3-65.8-123.9c-6.2-5.6-15.9-5-21.9,1L378,134c-6.4,6.4-6.4,16.9,0.4,22.8
		c17.5,15.3,30.2,35.8,35.1,59.8c15,72-40,135.4-109.4,135.4h-16v-48c0-6.4-3.8-12.2-9.9-14.7s-12.8-1.3-17.3,3.5l-96,96
		c-6.4,6.1-6.4,16.3,0,22.4l96,96c4.5,4.8,11.2,6.1,17.3,3.5c6.1-2.6,9.9-8.3,9.9-14.7v-48h16C427.5,448,526.7,339.2,510.1,212.5z"
		/>
</g>
</svg>
